<svg viewBox="0 0 150 150" xmlns="http://www.w3.org/2000/svg" xml:space="preserve" style="fill-rule:evenodd;clip-rule:evenodd;stroke-linecap:round;stroke-linejoin:round;stroke-miterlimit:1.5"><path d="m8.453 90.433 31.566-40.892S35.633 34.579 54.063 27.72c3.424-1.275-2.453 3.613-3.174 5.719-.85 2.482-1.926 9.177-1.926 9.177l6.09-11.469 3.175 5.401s6.514-8.37 8.369-7.339c1.856 1.031-3.133 4.906-3.133 4.906l27.129-15.932.129 22.611 51.299-27.308s7.124 54.577-18.079 72.472c-25.203 17.896 0 .404 0 .404v6.906l.795 4.084-2.577 5.347-6.943 8.081-1.457 6.504-5.669 5.359-4.535.567s-16.286 20.674-18.192 14.949c-1.907-5.724 4.586-14.021 4.586-14.021l-18.913 19.77-2.629-.599 12.163-19.017s-19.348 18.914-20.894 17.265 7.73-14.275 7.73-14.275l-10.822 9.07 3.349-10.567-9.554 8.402 4.504-9.121-4.504 2.22s2.537-1.312-10.364 1.859c-12.356 3.038-19.447.967-19.447.967-7.855-17.696-15.352-38.89-12.116-39.679" style="fill:#c81515;stroke:#fff;stroke-width:5.9px"/><path d="m14.952 6.845 4.185 8.833s3.306-3.433 4.12-5.511c.886-2.265.44-7.833.44-7.833z" style="fill:#7f7f7f;fill-rule:nonzero;stroke:#000;stroke-opacity:.23;stroke-width:.29px;stroke-miterlimit:4" transform="matrix(4.43128 0 0 5.01332 -14.724 7.398)"/><path d="M20.17 13.19c1.07.64.46 2.51.12 3.1.22 1.26-.95 1.56-.89 1.57-.16.82-1.51 3.05-1.52 1.25.14.37-5.35 6.16-2.56.91-.11-.05-6.63 7.22-1.09-.31-1.23.8-6.22 6.2-2.45.78-3.16 3.01-.71.05-1.25-.87" style="fill:#b8b8b8;fill-rule:nonzero;stroke:#000;stroke-opacity:0;stroke-width:.17px;stroke-miterlimit:4" transform="translate(-6.094 -.638)scale(6.25)"/><path d="M13.482 22.092c-.405-.034.371-1.34.686-1.944.5-.955 1.985-4.176 1.985-4.176h.981s-.008 2.703-.45 3.447c-.587.989-2.194 2.758-3.202 2.673" style="fill:#c81515;stroke:#b0b0b0;stroke-opacity:0;stroke-width:.55px" transform="matrix(3.3245 -1.04192 .9986 3.18625 48.959 54.42)"/><path d="M14.131 24.297c-.405-.034.736-4.445.761-4.681.117-1.082.287-6.123.287-6.123l2.89-1.806s.753 4.313.312 5.057c-.588.989-3.242 7.638-4.25 7.553" style="fill:#c81515;stroke:#b0b0b0;stroke-opacity:0;stroke-width:.55px" transform="rotate(20.075 -117.782 139.692)scale(3.48394 3.33907)"/><path d="M14.131 24.297c-.405-.034.736-4.445.761-4.681.117-1.082.287-6.123.287-6.123l2.89-1.806s.753 4.313.312 5.057c-.588.989-3.242 7.638-4.25 7.553" style="fill:#c81515;stroke:#b0b0b0;stroke-opacity:0;stroke-width:.87px" transform="matrix(1.95696 .71518 -.75946 2.0781 41.251 72.878)"/><path d="M13.559 22.136c-.439-.111.157-1.377.532-1.95.592-.905 2.062-4.214 2.062-4.214h.981s.122 2.527-.32 3.27c-.587.99-2.859 2.993-3.255 2.894" style="fill:#c81515;stroke:#b0b0b0;stroke-opacity:0;stroke-width:.31px" transform="matrix(6.01032 0 0 6.21586 4.107 .545)"/><path d="M6.73 8.51c1.75-.76 5.44-.91 6.73-.76l2.04-.95c-2.75-.87-6.82-.46-8.77 1.71" style="fill:#b8b8b8;fill-rule:nonzero;stroke:#000;stroke-opacity:0;stroke-width:.15px;stroke-miterlimit:4" transform="matrix(6.06948 0 0 6.25 -3.296 -.638)"/><path d="M13.547 7.103c.141-.107 1.373-.467.56-.519-.104-.007-.38-.149-.56-.083-.166.061-.891.553-.891.553s.751.156.891.049" style="fill:#c81515;stroke:#000;stroke-opacity:0;stroke-width:.3px" transform="scale(6.25)"/><path d="M13.547 7.103c.141-.107.717-.395.717-.395s-.537-.273-.717-.207c-.166.061-.891.553-.891.553s.751.156.891.049" style="fill:#c81515;stroke:#000;stroke-opacity:0;stroke-width:.27px" transform="rotate(-16.247 64.94 105.055)scale(6.79206 6.88725)"/><path d="M13.547 7.103c.141-.107.717-.395.717-.395s-.537-.273-.717-.207c-.166.061-.891.553-.891.553s.751.156.891.049" style="fill:#c81515;stroke:#000;stroke-opacity:0;stroke-width:.27px" transform="rotate(-23.631 65.463 114.282)scale(6.79206 6.88725)"/><path d="M13.547 7.103c.141-.107.945-.46.945-.46s-.89-.262-1.07-.196c-.166.061-1.886.311-1.886.311s1.871.452 2.011.345" style="fill:#c81515;stroke:#000;stroke-opacity:0;stroke-width:.29px" transform="rotate(-23.631 61.388 119.876)scale(6.0978 6.88725)"/><path d="m14.34 8.61.455-.745L18.4 9.749l1.58 4.101-3.3 1.25-2.02-3.61z" style="fill:#d32f2a;fill-opacity:.99;fill-rule:nonzero;stroke:#000;stroke-opacity:0;stroke-width:.24px;stroke-miterlimit:4" transform="rotate(76.542 162.035 35.694)scale(9.90551 7.10812)"/><path d="m14.952 6.845 1.917.845 5.744-3.446s.63 3.573-.704 5.662-1.929 2.196-1.929 2.196c-.268 1.617-.843 3.576-.843 3.576s3.306-3.433 4.12-5.511c.886-2.265.44-7.833.44-7.833z" style="fill:#7f7f7f;fill-rule:nonzero;stroke:#fff;stroke-opacity:.23;stroke-width:.29px;stroke-miterlimit:4" transform="translate(-6.094 -.638)scale(6.25)"/><path d="M6.741 13.731 13.9 7.948l5.04 7.73-9.946 4.55z" style="fill:#0a0a0a;stroke:#000;stroke-width:.3px" transform="translate(-6.094 -.638)scale(6.25)"/><path d="M6.763 8.828S7.964 7.819 8.994 7.68c1.255-.17 5.076 0 5.076 0l-7.53 8.394-2.366.742-2.604.411z" style="fill:#0a0a0a;stroke:#000;stroke-width:.36px" transform="matrix(5.88513 0 0 4.5829 -.96 12.04)"/><path d="M4.24 21.38s1.578-.018 2.367-.102c.795-.084 2.448-.433 2.448-.433l-2.331-4.851s-1.789.3-2.626.401c-.859.103-2.528.219-2.528.219.148 1.1 1.947 4.136 2.67 4.766" style="fill:#0a0a0a;stroke:#000;stroke-width:.27px" transform="matrix(5.6244 0 0 8.2299 -.551 -45.84)"/><path d="m14.34 8.61 1.84-.92 2.18 1.34 1.62 4.82-3.3 1.25-2.02-3.61z" style="fill:#d32f2a;fill-opacity:.99;fill-rule:nonzero;stroke:#000;stroke-opacity:0;stroke-width:.24px;stroke-miterlimit:4" transform="translate(-6.094 -.638)scale(6.25)"/><path d="M15.03 6.81c1.47-.59 3.48.98 4.5 3.5 1.01 2.52.64 5.05-.82 5.64-1.47.59-3.48-.98-4.5-3.5-1.01-2.52-.65-5.05.82-5.64m.49 1.48c-.87.43-.93 2.11-.13 3.76.81 1.66 2.16 2.66 3.03 2.23.88-.42.93-2.1.13-3.76-.8-1.65-2.16-2.65-3.03-2.23" style="fill:#7f7f7f;fill-rule:nonzero;stroke:#fff;stroke-opacity:.14;stroke-width:.24px;stroke-miterlimit:4" transform="translate(-6.094 -.638)scale(6.25)"/><path d="M8.263 7.494 9.261 5.4s.934 1.609.741 1.754-1.739.34-1.739.34" style="fill:#cd4b4b;stroke:#b0b0b0;stroke-width:.28px" transform="translate(-8.383 -4.19)scale(6.81633)"/><path d="M9.144 7.154c-.024-.015-.045-.02-.052-.059-.02-.099-.082-.256.019-.317.043-.031.128-.082.159-.02l.046.093c.023-.105.048-.131.158-.08.016.008.063.039.066.06.014.087-.051.104-.066.178-.002.009-.325.139-.33.145" style="fill:#dfdfdf;stroke:#878787;stroke-width:.09px" transform="translate(-8.887 -3.195)scale(6.81633)"/><path d="M8.263 7.494 9.261 5.4s.934 1.609.741 1.754-1.739.34-1.739.34" style="fill:#cd4b4b;stroke:#b0b0b0;stroke-width:.28px" transform="matrix(-6.81633 0 0 6.81633 136.191 -4.783)"/><path d="M9.144 7.154c-.024-.015-.045-.02-.052-.059-.02-.099-.082-.256.019-.317.043-.031.128-.082.159-.02l.046.093c.023-.105.048-.131.158-.08.016.008.063.039.066.06.014.087-.051.104-.066.178-.002.009-.325.139-.33.145" style="fill:#dfdfdf;stroke:#878787;stroke-width:.09px" transform="matrix(-6.81633 0 0 6.81633 136.696 -3.781)"/><path d="M6.38 8.7c1.55-.9 5.86-.992 7.69-.752l.522-.722c-4.47-.42-7.332.264-8.212 1.474" style="fill:#a2a2a2;fill-rule:nonzero;stroke:#000;stroke-opacity:0;stroke-width:.29px;stroke-miterlimit:4" transform="matrix(5.90527 0 0 6.25 -1.064 -.638)"/><path d="M15.73 8.57c.72-.32 1.85.65 2.53 2.16.67 1.51.63 3-.09 3.32s-1.85-.65-2.52-2.16c-.68-1.51-.64-3 .08-3.32" style="fill:#7f7f7f;fill-opacity:.98;fill-rule:nonzero;stroke:#000;stroke-opacity:0;stroke-width:.24px;stroke-miterlimit:4" transform="matrix(5.33772 -.25566 .26485 5.52962 6.595 11.624)"/><path d="m8.955 9.014 1.185-.416s-.999-3.337 0-3.952c.725-.447-.851.157-1.286 1.096-.124.27-.342.964-.221 1.598.123.648.322 1.674.322 1.674" style="fill:#fe4040;stroke:#000;stroke-width:.1px" transform="rotate(6.034 46.66 60.898)scale(6.25)"/><path d="M9.876 8.769 8.633 7.502 9.68 6.037" style="fill:#c81515;fill-opacity:0;stroke:#000;stroke-width:.14px" fill="none" transform="matrix(6.94723 0 0 6.48585 -4.32 -2.068)"/><path d="m8.955 9.014 1.185-.416s-.999-3.337 0-3.952c.725-.447-.851.157-1.286 1.096-.124.27-.342.964-.221 1.598.123.648.322 1.674.322 1.674" style="fill:#fe4040;stroke:#000;stroke-width:.09px" transform="matrix(7.22262 .74257 -.76343 7.02523 -16.683 -10.863)"/><path d="M9.876 8.769 8.633 7.502 9.64 6.71l-.66-.669.878-.582" style="fill:#c81515;fill-opacity:0;stroke:#000;stroke-width:.12px" fill="none" transform="matrix(8.07307 0 0 7.33095 -29.441 -8.038)"/><g transform="rotate(-24.64 227.551 -210.48)scale(16.4898 25.37606)"/><text x="9.972" y="14.28" style="font-family:&quot;Gotham-Bold&quot;,&quot;Gotham&quot;;font-weight:700;font-size:12px;fill:#d32f2a;fill-opacity:.99;stroke:#dd5e5a;stroke-opacity:.99;stroke-width:.35px;stroke-linecap:butt;stroke-miterlimit:2" transform="matrix(1.24903 -.5729 .88162 1.92213 73.832 58.368)">S</text><path d="M11.486 12.562c.402-1.078.379-1.722.379-1.722" style="fill:#c81515;fill-opacity:0;stroke:red;stroke-width:.3px" fill="none" transform="translate(1.43 -.377)scale(6.25)"/><path d="M11.676 12s.557 1.328.324 1.614" style="fill:#c81515;fill-opacity:0;stroke:red;stroke-width:.3px" fill="none" transform="translate(1.43 -.377)scale(6.25)"/><path d="M13.338 15.329c.523.926-4.53 3.121-4.53 3.121m-1.53-3.121c-.06-.12-.342-.785-.342-.785l.685-.382" style="fill:#c81515;fill-opacity:0;stroke:red;stroke-width:.3px" fill="none" transform="scale(6.25)"/></svg>